<svg width="24" height="24" viewBox="0 0 24 24" fill="none" xmlns="http://www.w3.org/2000/svg">
<path fill-rule="evenodd" clip-rule="evenodd" d="M16.2506 10.9704C16.5831 11.6165 16.5831 12.3834 16.2506 13.0295C16.1524 13.2204 15.9675 13.442 15.571 13.7729C15.1729 14.1052 14.6252 14.497 13.8489 15.0514L12.091 16.3071C11.0617 17.0423 10.3248 17.568 9.74058 17.9213C9.14856 18.2792 8.8103 18.3973 8.57435 18.4145C7.73374 18.4755 6.92951 18.0616 6.49059 17.3421C6.36738 17.1402 6.26691 16.7962 6.21407 16.1064C6.16192 15.4257 6.16139 14.5205 6.16139 13.2556L6.16139 10.7443C6.16139 9.47938 6.16192 8.57416 6.21407 7.89344C6.26691 7.20364 6.36738 6.85972 6.49059 6.65776C6.92951 5.93825 7.73374 5.52438 8.57435 5.58542C8.8103 5.60255 9.14856 5.72069 9.74058 6.07863C10.3248 6.43186 11.0617 6.95758 12.091 7.6928L13.8489 8.94844C14.6252 9.50291 15.1729 9.89472 15.571 10.227C15.9675 10.5579 16.1524 10.7795 16.2506 10.9704ZM17.5844 13.7159C18.1385 12.639 18.1385 11.3609 17.5844 10.284C17.3501 9.82878 16.9854 9.45356 16.5321 9.07528C16.0854 8.70254 15.4914 8.27823 14.746 7.74585L12.9356 6.45271C11.9395 5.74116 11.156 5.18153 10.5167 4.795C9.8793 4.40966 9.28764 4.13327 8.68299 4.08936C7.28197 3.98762 5.94159 4.67741 5.21005 5.8766C4.89433 6.39415 4.77534 7.03625 4.71845 7.77887C4.66139 8.52378 4.66139 9.48662 4.66139 10.7108L4.66139 13.2891C4.66139 14.5133 4.66139 15.4761 4.71845 16.221C4.77534 16.9636 4.89433 17.6057 5.21005 18.1233C5.94159 19.3225 7.28197 20.0123 8.68299 19.9105C9.28764 19.8666 9.8793 19.5902 10.5167 19.2049C11.156 18.8183 11.9395 18.2587 12.9357 17.5471L14.746 16.254C15.4914 15.7217 16.0854 15.2973 16.5321 14.9246C16.9854 14.5463 17.3501 14.1711 17.5844 13.7159Z" fill="#fff"/>
</svg>
