<svg width="32" height="32" viewBox="0 0 24 24" fill="none" xmlns="http://www.w3.org/2000/svg">
<path fill-rule="evenodd" clip-rule="evenodd" d="M8.79296 3.91739C9.76093 0.754099 14.2391 0.754099 15.207 3.91739C15.4918 4.84809 16.4479 5.40007 17.3963 5.18136C20.6198 4.43801 22.8588 8.31618 20.6033 10.7361C19.9397 11.4481 19.9397 12.5521 20.6033 13.2641C22.8588 15.684 20.6198 19.5622 17.3963 18.8188C16.4479 18.6001 15.4918 19.1521 15.207 20.0828C14.2391 23.2461 9.76093 23.2461 8.79296 20.0828C8.50816 19.1521 7.5521 18.6001 6.60369 18.8188C3.38021 19.5622 1.14115 15.684 3.39665 13.2641C4.06027 12.5521 4.06027 11.4481 3.39665 10.7361C1.14115 8.31618 3.38021 4.43801 6.60369 5.18136C7.5521 5.40007 8.50816 4.84809 8.79296 3.91739ZM13.7727 4.3563C13.2376 2.60779 10.7624 2.60779 10.2273 4.3563C9.71207 6.04007 7.98243 7.03868 6.26663 6.643C4.48485 6.23211 3.24721 8.37577 4.49394 9.71339C5.6945 11.0015 5.6945 12.9987 4.49394 14.2868C3.24721 15.6244 4.48485 17.7681 6.26663 17.3572C7.98243 16.9615 9.71207 17.9601 10.2273 19.6439C10.7624 21.3924 13.2376 21.3924 13.7727 19.6439C14.2879 17.9601 16.0176 16.9615 17.7334 17.3572C19.5151 17.7681 20.7528 15.6244 19.5061 14.2868C18.3055 12.9987 18.3055 11.0015 19.5061 9.71339C20.7528 8.37577 19.5151 6.23211 17.7334 6.643C16.0176 7.03868 14.2879 6.04007 13.7727 4.3563Z" fill="#A4A4A4"/>
<path fill-rule="evenodd" clip-rule="evenodd" d="M12 9.75C10.7574 9.75 9.75 10.7574 9.75 12C9.75 13.2426 10.7574 14.25 12 14.25C13.2426 14.25 14.25 13.2426 14.25 12C14.25 10.7574 13.2426 9.75 12 9.75ZM8.25 12C8.25 9.92893 9.92893 8.25 12 8.25C14.0711 8.25 15.75 9.92893 15.75 12C15.75 14.0711 14.0711 15.75 12 15.75C9.92893 15.75 8.25 14.0711 8.25 12Z" fill="#A4A4A4"/>
</svg>
