<svg width="32" height="32" viewBox="0 0 24 24" fill="none" xmlns="http://www.w3.org/2000/svg">
<path fill-rule="evenodd" clip-rule="evenodd" d="M10.6295 1.58944C11.4781 1.1017 12.5219 1.1017 13.3704 1.58944C13.75 1.8076 14.0375 2.14918 14.3021 2.53269C14.5652 2.91392 14.8604 3.42074 15.2246 4.04595L15.8621 5.14052C16.0957 5.54163 16.1616 5.64731 16.2367 5.73036C16.3531 5.85912 16.495 5.96224 16.6534 6.03314C16.7556 6.07887 16.8765 6.10888 17.3301 6.20712L18.5681 6.47521C19.2753 6.62833 19.8485 6.75245 20.2924 6.88486C20.7389 7.01807 21.1526 7.18594 21.4774 7.47948C22.2035 8.13577 22.526 9.12851 22.3244 10.0862C22.2342 10.5146 21.9981 10.8936 21.7152 11.2638C21.4339 11.6318 21.0432 12.0692 20.5611 12.6087L19.7171 13.5533C19.4078 13.8994 19.3276 13.9948 19.2718 14.0918C19.1853 14.2423 19.1311 14.4091 19.1127 14.5817C19.1007 14.693 19.1095 14.8173 19.1563 15.2791L19.2839 16.5394C19.3568 17.2592 19.4159 17.8427 19.4271 18.3058C19.4384 18.7716 19.4066 19.2169 19.2278 19.6165C18.828 20.5099 17.9835 21.1234 17.0103 21.2276C16.5751 21.2742 16.1417 21.1668 15.7021 21.0121C15.2652 20.8584 14.7285 20.6218 14.0664 20.3301L12.9073 19.8193C12.4825 19.6321 12.3671 19.5853 12.2575 19.5623C12.0877 19.5265 11.9123 19.5265 11.7424 19.5623C11.6329 19.5853 11.5174 19.6321 11.0927 19.8193L9.93351 20.3301C9.27143 20.6218 8.73472 20.8584 8.2978 21.0121C7.85824 21.1668 7.42489 21.2742 6.98961 21.2276C6.01643 21.1234 5.17196 20.5099 4.77216 19.6165C4.59335 19.2169 4.56153 18.7716 4.57283 18.3058C4.58406 17.8427 4.64315 17.2592 4.71604 16.5394L4.84364 15.2791C4.8904 14.8173 4.89921 14.693 4.88729 14.5817C4.86882 14.4091 4.81461 14.2423 4.72811 14.0918C4.67232 13.9948 4.59218 13.8994 4.2829 13.5533L3.43888 12.6087C2.95681 12.0692 2.56602 11.6318 2.28476 11.2638C2.00181 10.8936 1.76579 10.5146 1.67559 10.0862C1.47392 9.12851 1.79649 8.13577 2.52258 7.47948C2.84734 7.18594 3.26104 7.01807 3.70757 6.88486C4.15143 6.75245 4.72466 6.62833 5.43179 6.47521L6.66981 6.20712C7.12349 6.10888 7.24435 6.07887 7.34654 6.03314C7.50496 5.96224 7.64689 5.85912 7.76327 5.73036C7.83834 5.64731 7.90424 5.54163 8.13787 5.14052L8.77539 4.04596C9.13953 3.42075 9.43472 2.91392 9.69782 2.53269C9.96249 2.14918 10.25 1.8076 10.6295 1.58944ZM12.6229 2.88991C12.2372 2.66821 11.7627 2.66821 11.377 2.88991C11.2937 2.9378 11.161 3.05339 10.9324 3.38469C10.706 3.71276 10.4395 4.16922 10.0557 4.8281L9.43403 5.89547C9.42312 5.91421 9.41234 5.93273 9.4017 5.95102C9.2156 6.27092 9.06928 6.52242 8.87607 6.73618C8.62003 7.01946 8.30779 7.24631 7.95925 7.40229C7.69625 7.51999 7.41184 7.58142 7.05008 7.65957C7.0294 7.66403 7.00846 7.66855 6.98727 7.67314L5.78003 7.93457C5.03481 8.09594 4.51835 8.20832 4.13637 8.32227C3.75064 8.43734 3.59968 8.52785 3.5284 8.59228C3.19836 8.8906 3.05174 9.34184 3.1434 9.77717C3.1632 9.8712 3.23212 10.0332 3.47655 10.353C3.7186 10.6697 4.07037 11.0642 4.57842 11.6328L5.40143 12.5538C5.41589 12.57 5.43017 12.586 5.44427 12.6018C5.69101 12.8776 5.88499 13.0945 6.02858 13.3443C6.21887 13.6753 6.33814 14.0424 6.37877 14.4221C6.40944 14.7086 6.37998 14.9981 6.34251 15.3663C6.34037 15.3873 6.3382 15.4086 6.33601 15.4302L6.21158 16.6591C6.13478 17.4177 6.08206 17.9437 6.07239 18.3422C6.06263 18.7446 6.10207 18.9161 6.14132 19.0038C6.32304 19.4099 6.70689 19.6888 7.14925 19.7361C7.24479 19.7463 7.42012 19.7308 7.79982 19.5972C8.17583 19.4649 8.6597 19.2522 9.35745 18.9447L10.4878 18.4466C10.5076 18.4379 10.5272 18.4292 10.5466 18.4207C10.8852 18.2713 11.1514 18.1538 11.4333 18.0944C11.807 18.0158 12.1929 18.0158 12.5666 18.0944C12.8485 18.1538 13.1147 18.2713 13.4533 18.4207C13.4727 18.4292 13.4923 18.4379 13.5122 18.4466L14.6425 18.9447C15.3402 19.2522 15.8241 19.4649 16.2001 19.5972C16.5798 19.7308 16.7552 19.7463 16.8507 19.7361C17.2931 19.6888 17.6769 19.4099 17.8586 19.0038C17.8979 18.9161 17.9373 18.7446 17.9276 18.3422C17.9179 17.9437 17.8652 17.4177 17.7884 16.6591L17.6639 15.4302C17.6617 15.4086 17.6596 15.3873 17.6574 15.3663C17.62 14.9981 17.5905 14.7086 17.6212 14.4221C17.6618 14.0424 17.7811 13.6753 17.9714 13.3443C18.115 13.0945 18.3089 12.8776 18.5557 12.6018C18.5698 12.586 18.5841 12.57 18.5985 12.5538L19.4215 11.6328C19.9296 11.0642 20.2813 10.6697 20.5234 10.353C20.7678 10.0332 20.8367 9.8712 20.8565 9.77717C20.9482 9.34184 20.8016 8.8906 20.4715 8.59228C20.4003 8.52785 20.2493 8.43734 19.8636 8.32227C19.4816 8.20832 18.9651 8.09594 18.2199 7.93457L17.0127 7.67314C16.9915 7.66855 16.9705 7.66403 16.9499 7.65956C16.5881 7.58142 16.3037 7.51999 16.0407 7.40229C15.6922 7.24631 15.3799 7.01946 15.1239 6.73618C14.9307 6.52242 14.7843 6.27092 14.5982 5.95102C14.5876 5.93273 14.5768 5.91421 14.5659 5.89547L13.9442 4.8281C13.5605 4.16922 13.294 3.71276 13.0676 3.38469C12.8389 3.05339 12.7062 2.9378 12.6229 2.88991Z" fill="#A4A4A4"/>
</svg>
