<svg width="24" height="24" viewBox="0 0 24 24" fill="none" xmlns="http://www.w3.org/2000/svg">
<circle cx="12" cy="12" r="10" fill="black"/>
<path d="M12.0252 6C8.73174 6 6.05148 8.6676 6.05032 11.946C6.04955 12.9944 6.32516 14.0176 6.84774 14.9188L6 18L9.16761 17.1732C10.0487 17.6495 11.0285 17.8979 12.0228 17.8972H12.0252C15.3186 17.8972 17.9988 15.2292 18 11.9508C18.0008 10.3628 17.3799 8.868 16.2515 7.7444C15.1235 6.6204 13.6235 6.0004 12.0252 6ZM12.0252 16.8928H12.0232C11.1321 16.8928 10.2581 16.6544 9.49548 16.204L9.31355 16.0968L7.43458 16.5872L7.93626 14.7632L7.81819 14.5764C7.32229 13.7949 7.0583 12.8806 7.05871 11.946C7.05987 9.2208 9.288 7.0044 12.0271 7.0044C13.3533 7.0048 14.6001 7.5196 15.5381 8.4536C16.476 9.3876 16.992 10.6296 16.9912 11.9504C16.9901 14.6756 14.7623 16.8928 12.0248 16.8928H12.0252ZM14.7492 13.1908C14.5997 13.1168 13.8658 12.7572 13.7288 12.7072C13.5921 12.658 13.4926 12.6324 13.3932 12.7812C13.2941 12.93 13.0076 13.2648 12.9209 13.3636C12.8334 13.4628 12.7463 13.4748 12.5969 13.4008C12.4475 13.3264 11.9663 13.1696 11.3965 12.6632C10.9525 12.2696 10.6529 11.7832 10.5658 11.634C10.4787 11.4856 10.5565 11.4052 10.6312 11.3312C10.6982 11.2652 10.7806 11.158 10.855 11.0712C10.9293 10.9844 10.9541 10.9224 11.0044 10.8232C11.0539 10.7244 11.0292 10.6372 10.9916 10.5632C10.9541 10.4884 10.656 9.7572 10.531 9.46C10.4102 9.1704 10.2871 9.2092 10.1954 9.2044C10.1083 9.2004 10.0092 9.1992 9.9089 9.1992C9.81019 9.1992 9.648 9.2364 9.51097 9.3852C9.37432 9.534 8.98839 9.8932 8.98839 10.6244C8.98839 11.356 9.52335 12.0624 9.59806 12.1616C9.67277 12.2604 10.651 13.7616 12.1486 14.4056C12.5048 14.558 12.7827 14.6496 12.9999 14.7184C13.3575 14.8316 13.6831 14.8152 13.9401 14.7772C14.2266 14.7344 14.8235 14.418 14.9474 14.0712C15.072 13.7244 15.072 13.4268 15.0348 13.3648C14.9985 13.3028 14.8986 13.2656 14.7492 13.1908V13.1908Z" fill="white"/>
</svg>
